<svg xmlns="http://www.w3.org/2000/svg" xmlns:xlink="http://www.w3.org/1999/xlink" width="500" zoomAndPan="magnify" viewBox="0 0 375 374.999991" height="500" preserveAspectRatio="xMidYMid meet" version="1.0"><defs><clipPath id="84084ab248"><path d="M 113.453125 113.453125 L 261.546875 113.453125 L 261.546875 261.546875 L 113.453125 261.546875 Z M 113.453125 113.453125 " clip-rule="nonzero"/></clipPath><clipPath id="0a5703f97d"><path d="M 187.5 113.453125 C 146.605469 113.453125 113.453125 146.605469 113.453125 187.5 C 113.453125 228.394531 146.605469 261.546875 187.5 261.546875 C 228.394531 261.546875 261.546875 228.394531 261.546875 187.5 C 261.546875 146.605469 228.394531 113.453125 187.5 113.453125 Z M 187.5 113.453125 " clip-rule="nonzero"/></clipPath><clipPath id="1328c96fd6"><path d="M 0.453125 0.453125 L 148.546875 0.453125 L 148.546875 148.546875 L 0.453125 148.546875 Z M 0.453125 0.453125 " clip-rule="nonzero"/></clipPath><clipPath id="1f36a406e2"><path d="M 74.5 0.453125 C 33.605469 0.453125 0.453125 33.605469 0.453125 74.5 C 0.453125 115.394531 33.605469 148.546875 74.5 148.546875 C 115.394531 148.546875 148.546875 115.394531 148.546875 74.5 C 148.546875 33.605469 115.394531 0.453125 74.5 0.453125 Z M 74.5 0.453125 " clip-rule="nonzero"/></clipPath><clipPath id="4dc9381d18"><rect x="0" width="149" y="0" height="149"/></clipPath><clipPath id="8b4c942cc8"><path d="M 113.453125 113.453125 L 261.203125 113.453125 L 261.203125 261.203125 L 113.453125 261.203125 Z M 113.453125 113.453125 " clip-rule="nonzero"/></clipPath><clipPath id="33fc91e565"><path d="M 187.5 113.453125 C 146.605469 113.453125 113.453125 146.605469 113.453125 187.5 C 113.453125 228.390625 146.605469 261.542969 187.5 261.542969 C 228.390625 261.542969 261.542969 228.390625 261.542969 187.5 C 261.542969 146.605469 228.390625 113.453125 187.5 113.453125 Z M 187.5 113.453125 " clip-rule="nonzero"/></clipPath><clipPath id="e13a79f7f2"><path d="M 141 142.167969 L 234.5625 142.167969 L 234.5625 232 L 141 232 Z M 141 142.167969 " clip-rule="nonzero"/></clipPath></defs><g clip-path="url(#84084ab248)"><g clip-path="url(#0a5703f97d)"><g transform="matrix(1, 0, 0, 1, 113, 113)"><g clip-path="url(#4dc9381d18)"><g clip-path="url(#1328c96fd6)"><g clip-path="url(#1f36a406e2)"><path fill="#edf4e4" d="M 0.453125 0.453125 L 148.546875 0.453125 L 148.546875 148.546875 L 0.453125 148.546875 Z M 0.453125 0.453125 " fill-opacity="1" fill-rule="nonzero"/></g></g></g></g></g></g><g clip-path="url(#8b4c942cc8)"><g clip-path="url(#33fc91e565)"><path stroke-linecap="butt" transform="matrix(0.75, 0, 0, 0.75, 113.453383, 113.453378)" fill="none" stroke-linejoin="miter" d="M 98.72883 -0.000337533 C 44.202784 -0.000337533 -0.000343533 44.20279 -0.000343533 98.728836 C -0.000343533 153.249673 44.202784 197.4528 98.72883 197.4528 C 153.249667 197.4528 197.452794 153.249673 197.452794 98.728836 C 197.452794 44.20279 153.249667 -0.000337533 98.72883 -0.000337533 Z M 98.72883 -0.000337533 " stroke="#738063" stroke-width="2" stroke-opacity="1" stroke-miterlimit="4"/></g></g><g clip-path="url(#e13a79f7f2)"><path fill="#3e4b2f" d="M 217.304688 175.503906 C 218.292969 177.214844 219.152344 178.707031 219.738281 179.804688 C 219.871094 180.058594 220.078125 180.277344 220.355469 180.421875 C 221.078125 180.808594 221.980469 180.535156 222.367188 179.808594 C 222.949219 178.722656 223.808594 177.234375 224.789062 175.527344 C 228.519531 169.054688 234.035156 159.484375 234.035156 155.148438 C 234.035156 151.570312 232.582031 148.324219 230.234375 145.976562 L 230.226562 145.96875 C 227.878906 143.621094 224.636719 142.167969 221.054688 142.167969 C 217.472656 142.167969 214.230469 143.621094 211.882812 145.96875 L 211.875 145.976562 C 209.527344 148.324219 208.074219 151.570312 208.074219 155.148438 C 208.074219 159.496094 213.574219 169.035156 217.304688 175.503906 Z M 213.984375 148.082031 C 215.792969 146.277344 218.292969 145.160156 221.054688 145.160156 C 223.816406 145.160156 226.3125 146.277344 228.121094 148.082031 C 229.925781 149.886719 231.046875 152.386719 231.046875 155.148438 C 231.046875 158.710938 225.773438 167.859375 222.210938 174.042969 L 221.054688 176.054688 L 219.882812 174.019531 C 216.316406 167.835938 211.0625 158.722656 211.0625 155.148438 C 211.0625 152.386719 212.179688 149.886719 213.984375 148.082031 Z M 225.183594 158.894531 C 226.238281 157.835938 226.894531 156.378906 226.894531 154.765625 C 226.894531 153.15625 226.242188 151.695312 225.183594 150.640625 C 224.128906 149.582031 222.667969 148.929688 221.054688 148.929688 C 219.441406 148.929688 217.984375 149.582031 216.925781 150.640625 C 215.871094 151.695312 215.214844 153.15625 215.214844 154.765625 C 215.214844 156.378906 215.871094 157.835938 216.925781 158.894531 C 217.980469 159.949219 219.441406 160.605469 221.054688 160.605469 C 222.667969 160.601562 224.128906 159.949219 225.183594 158.894531 Z M 218.207031 154.765625 C 218.207031 153.976562 218.523438 153.265625 219.039062 152.75 C 219.554688 152.238281 220.269531 151.914062 221.054688 151.914062 C 221.84375 151.914062 222.554688 152.234375 223.074219 152.75 C 223.585938 153.265625 223.90625 153.976562 223.90625 154.765625 C 223.90625 155.550781 223.589844 156.265625 223.074219 156.777344 C 222.558594 157.292969 221.84375 157.613281 221.054688 157.613281 C 220.269531 157.613281 219.558594 157.292969 219.039062 156.777344 C 218.523438 156.265625 218.207031 155.550781 218.207031 154.765625 Z M 184.5 158.675781 C 186.730469 158.675781 188.757812 157.789062 190.242188 156.34375 L 190.335938 156.257812 C 191.828125 154.765625 192.753906 152.703125 192.753906 150.421875 C 192.753906 148.152344 191.832031 146.09375 190.335938 144.589844 L 190.332031 144.585938 C 188.835938 143.09375 186.773438 142.167969 184.5 142.167969 C 182.222656 142.167969 180.15625 143.09375 178.667969 144.589844 C 177.171875 146.085938 176.246094 148.148438 176.246094 150.421875 C 176.246094 152.703125 177.171875 154.765625 178.664062 156.257812 C 180.15625 157.75 182.222656 158.675781 184.5 158.675781 Z M 180.773438 146.699219 L 180.78125 146.699219 C 181.734375 145.75 183.050781 145.160156 184.503906 145.160156 C 185.960938 145.160156 187.277344 145.746094 188.226562 146.695312 C 188.226562 146.695312 188.234375 146.703125 188.234375 146.703125 C 189.179688 147.652344 189.765625 148.96875 189.765625 150.425781 C 189.765625 151.878906 189.175781 153.195312 188.226562 154.148438 L 188.160156 154.21875 C 187.21875 155.128906 185.925781 155.6875 184.503906 155.6875 C 183.050781 155.6875 181.730469 155.097656 180.78125 154.148438 C 179.828125 153.195312 179.238281 151.878906 179.238281 150.425781 C 179.238281 148.964844 179.824219 147.648438 180.773438 146.699219 Z M 184.5 142.167969 Z M 231.472656 180.640625 C 221.480469 190.910156 214.898438 195.929688 208.316406 199.019531 L 199.953125 181.164062 C 201.015625 181.023438 201.980469 180.566406 202.71875 179.863281 L 202.816406 179.769531 C 203.714844 178.875 204.273438 177.632812 204.273438 176.269531 C 204.273438 174.902344 203.714844 173.664062 202.816406 172.765625 C 201.925781 171.875 200.683594 171.320312 199.316406 171.316406 L 189.992188 171.308594 L 181.765625 161.386719 C 181.410156 160.984375 180.605469 160.332031 179.773438 159.828125 C 179.125 159.4375 178.40625 159.101562 177.761719 158.96875 C 176.3125 158.484375 174.816406 158.460938 173.433594 158.816406 L 173.492188 158.660156 C 173.808594 157.796875 173.746094 156.878906 173.382812 156.097656 C 173.023438 155.316406 172.367188 154.671875 171.503906 154.351562 L 162.460938 151.007812 C 162.394531 150.980469 162.328125 150.957031 162.257812 150.9375 C 161.429688 150.664062 160.558594 150.734375 159.8125 151.082031 C 159.066406 151.425781 158.445312 152.035156 158.113281 152.84375 C 158.082031 152.910156 158.058594 152.976562 158.035156 153.046875 L 149.523438 176.070312 C 149.207031 176.933594 149.269531 177.851562 149.628906 178.632812 C 149.988281 179.410156 150.644531 180.058594 151.511719 180.375 L 160.644531 183.75 C 160.730469 183.78125 160.816406 183.773438 160.902344 183.789062 C 160.222656 185.8125 160.300781 187.621094 160.996094 189.179688 C 161.742188 190.855469 163.167969 192.183594 165.054688 193.148438 L 165.144531 193.191406 L 165.144531 204.457031 L 155.589844 215.503906 C 152.429688 217.105469 149.640625 218.96875 147.234375 221.292969 C 144.8125 223.632812 142.785156 226.425781 141.171875 229.863281 C 140.820312 230.605469 141.144531 231.496094 141.890625 231.839844 C 142.632812 232.191406 143.519531 231.867188 143.867188 231.125 C 145.316406 228.039062 147.128906 225.535156 149.296875 223.441406 C 149.894531 222.863281 150.535156 222.316406 151.1875 221.792969 C 151.136719 222.148438 151.117188 222.503906 151.144531 222.855469 C 151.230469 224.078125 151.769531 225.269531 152.734375 226.15625 C 152.804688 226.222656 152.875 226.285156 152.953125 226.339844 C 153.964844 227.164062 155.21875 227.527344 156.433594 227.4375 C 157.699219 227.347656 158.933594 226.773438 159.824219 225.742188 L 170.882812 212.957031 L 174.273438 211.953125 L 178.558594 210.707031 C 179.773438 210.359375 180.804688 210.066406 181.820312 209.785156 C 182.292969 209.65625 182.769531 209.527344 183.269531 209.394531 L 184.984375 218.46875 C 185.058594 218.859375 185.1875 219.226562 185.34375 219.570312 C 185.105469 219.425781 184.824219 219.324219 184.46875 219.34375 C 184.363281 219.351562 184.28125 219.363281 184.179688 219.390625 C 183.207031 219.652344 182.222656 219.929688 181.261719 220.230469 C 179.554688 220.773438 180.054688 223.335938 181.890625 223.144531 C 181.976562 223.128906 182.054688 223.117188 182.140625 223.089844 C 183.070312 222.796875 184.027344 222.527344 184.964844 222.273438 C 185.78125 222.058594 186.113281 221.339844 186.039062 220.667969 C 186.34375 221.035156 186.675781 221.375 187.066406 221.640625 C 188.085938 222.335938 189.359375 222.652344 190.660156 222.4375 C 190.738281 222.429688 190.820312 222.414062 190.898438 222.390625 C 192.183594 222.117188 193.25 221.351562 193.945312 220.339844 C 193.996094 220.265625 194.027344 220.183594 194.070312 220.105469 L 196.320312 219.621094 C 198.035156 219.261719 197.8125 216.664062 195.980469 216.664062 C 195.875 216.671875 195.792969 216.675781 195.691406 216.699219 L 194.746094 216.90625 C 194.734375 216.8125 194.738281 216.726562 194.722656 216.636719 L 192.898438 206.976562 C 198.265625 205.671875 202.65625 204.574219 206.855469 202.914062 L 210.136719 209.914062 C 210.488281 210.660156 211.371094 210.984375 212.117188 210.632812 C 212.859375 210.285156 213.183594 209.398438 212.835938 208.65625 L 209.597656 201.742188 C 216.4375 198.542969 223.257812 193.355469 233.613281 182.710938 C 234.1875 182.121094 234.171875 181.175781 233.585938 180.605469 C 232.988281 180.039062 232.046875 180.050781 231.472656 180.640625 Z M 152.539062 177.574219 C 152.449219 177.542969 152.378906 177.472656 152.335938 177.386719 C 152.296875 177.300781 152.292969 177.199219 152.328125 177.101562 L 160.875 153.984375 C 160.90625 153.898438 160.976562 153.828125 161.058594 153.789062 L 161.0625 153.789062 C 161.144531 153.75 161.246094 153.742188 161.34375 153.78125 L 170.476562 157.15625 C 170.570312 157.191406 170.640625 157.261719 170.679688 157.34375 L 170.679688 157.347656 C 170.71875 157.433594 170.726562 157.535156 170.691406 157.632812 L 169.179688 161.71875 C 168.746094 162.304688 168.363281 162.9375 168.105469 163.65625 L 161.863281 181.070312 C 161.796875 181.035156 161.746094 180.980469 161.671875 180.953125 Z M 157.574219 223.796875 C 157.222656 224.203125 156.730469 224.429688 156.226562 224.464844 C 155.722656 224.503906 155.199219 224.351562 154.792969 224 L 154.777344 223.988281 C 154.382812 223.636719 154.160156 223.148438 154.121094 222.652344 C 154.082031 222.144531 154.238281 221.625 154.589844 221.21875 L 167.761719 205.988281 C 168.007812 205.707031 168.125 205.359375 168.128906 205.015625 L 168.128906 194.457031 L 172.058594 196.101562 C 172.039062 199.507812 171.949219 203.046875 172.070312 206.398438 C 172.058594 206.601562 172.015625 206.804688 171.941406 207.003906 C 171.863281 207.210938 171.746094 207.410156 171.59375 207.589844 Z M 181.039062 206.917969 C 180.070312 207.183594 179.027344 207.480469 177.746094 207.851562 L 174.355469 208.835938 C 174.503906 208.582031 174.632812 208.320312 174.734375 208.050781 C 174.925781 207.539062 175.027344 207.003906 175.046875 206.460938 C 175.195312 203.574219 175.113281 200.398438 175.074219 197.363281 L 181.507812 200.058594 L 182.714844 206.46875 C 182.171875 206.609375 181.621094 206.757812 181.039062 206.917969 Z M 190.21875 219.492188 L 190.199219 219.496094 C 189.675781 219.589844 189.15625 219.460938 188.746094 219.179688 C 188.324219 218.894531 188.015625 218.453125 187.917969 217.921875 L 184.292969 198.714844 C 184.195312 198.199219 183.84375 197.796875 183.398438 197.609375 L 174.160156 193.742188 C 174.148438 193.738281 174.140625 193.734375 174.132812 193.730469 L 167.234375 190.84375 C 167.226562 190.839844 167.214844 190.835938 167.207031 190.832031 L 166.402344 190.492188 C 165.117188 189.835938 164.171875 188.988281 163.71875 187.96875 C 163.308594 187.050781 163.285156 185.929688 163.757812 184.605469 L 170.910156 164.65625 C 171.34375 163.449219 172.238281 162.523438 173.328125 162.007812 C 174.417969 161.496094 175.703125 161.394531 176.910156 161.824219 C 176.992188 161.855469 177.074219 161.875 177.160156 161.890625 L 177.160156 161.894531 C 177.429688 161.941406 177.828125 162.140625 178.234375 162.386719 C 178.800781 162.726562 179.292969 163.105469 179.503906 163.324219 L 188.140625 173.75 C 188.457031 174.132812 188.929688 174.316406 189.394531 174.285156 L 199.320312 174.296875 C 199.855469 174.296875 200.347656 174.523438 200.707031 174.882812 C 201.0625 175.238281 201.285156 175.730469 201.285156 176.269531 C 201.285156 176.8125 201.066406 177.304688 200.707031 177.660156 L 200.652344 177.71875 C 200.300781 178.039062 199.832031 178.238281 199.320312 178.238281 L 199.320312 178.246094 L 187.644531 178.246094 C 187.371094 178.242188 187.097656 178.179688 186.847656 178.0625 C 186.609375 177.953125 186.386719 177.792969 186.203125 177.585938 L 177.992188 168.34375 C 177.449219 167.726562 176.507812 167.671875 175.890625 168.214844 C 175.273438 168.757812 175.21875 169.699219 175.761719 170.316406 L 177.964844 172.796875 L 172.980469 186.699219 C 172.71875 187.425781 173.058594 188.222656 173.742188 188.546875 L 186.191406 194.503906 C 186.695312 194.785156 187.121094 195.054688 187.402344 195.34375 C 187.609375 195.558594 187.757812 195.808594 187.816406 196.136719 L 191.792969 217.195312 C 191.894531 217.726562 191.765625 218.253906 191.480469 218.671875 C 191.191406 219.082031 190.75 219.394531 190.21875 219.492188 Z M 192.34375 204.050781 L 190.742188 195.578125 C 190.5625 194.613281 190.140625 193.878906 189.53125 193.257812 C 189 192.710938 188.363281 192.296875 187.644531 191.898438 L 176.230469 186.433594 L 180.214844 175.328125 L 183.972656 179.558594 C 184.441406 180.085938 185 180.492188 185.605469 180.769531 C 186.234375 181.054688 186.914062 181.207031 187.59375 181.21875 L 196.683594 181.21875 L 205.570312 200.1875 C 201.585938 201.757812 197.410156 202.816406 192.34375 204.050781 Z M 176.667969 225.066406 C 175.730469 225.464844 174.878906 225.90625 173.96875 226.34375 C 172.128906 227.0625 171.050781 224.511719 172.679688 223.648438 C 173.601562 223.171875 174.617188 222.660156 175.582031 222.28125 C 177.398438 221.679688 178.410156 224.292969 176.667969 225.066406 Z M 230.191406 206.726562 C 229.410156 207.425781 228.578125 208.070312 227.730469 208.683594 C 227.609375 208.765625 227.519531 208.8125 227.390625 208.863281 C 225.636719 209.449219 224.644531 207.175781 225.996094 206.25 C 226.761719 205.703125 227.511719 205.113281 228.214844 204.488281 C 229.683594 203.210938 231.660156 205.367188 230.191406 206.726562 Z M 205.105469 217.660156 C 204.128906 217.894531 203.152344 218.117188 202.171875 218.34375 C 202.074219 218.367188 201.992188 218.375 201.890625 218.382812 C 200 218.382812 199.839844 215.78125 201.511719 215.429688 C 202.476562 215.207031 203.4375 214.988281 204.402344 214.757812 C 206.355469 214.34375 207.003906 217.160156 205.105469 217.660156 Z M 214.890625 213.734375 C 214.925781 214.425781 214.507812 215.027344 213.855469 215.246094 C 212.886719 215.550781 211.925781 215.847656 210.953125 216.128906 C 210.738281 216.1875 210.609375 216.195312 210.386719 216.183594 C 208.710938 215.996094 208.601562 213.660156 210.125 213.257812 C 211.066406 212.984375 212 212.695312 212.941406 212.402344 C 213.863281 212.09375 214.835938 212.769531 214.890625 213.734375 Z M 169.441406 229.441406 C 168.761719 230.046875 168.128906 230.710938 167.558594 231.421875 C 167.507812 231.488281 167.453125 231.546875 167.390625 231.605469 C 165.964844 232.828125 164.113281 230.945312 165.21875 229.566406 C 165.890625 228.71875 166.636719 227.933594 167.445312 227.214844 C 167.542969 227.125 167.644531 227.0625 167.761719 226.996094 C 169.375 226.238281 170.703125 228.269531 169.441406 229.441406 Z M 222.382812 211.851562 C 221.464844 212.308594 220.53125 212.730469 219.585938 213.132812 C 217.726562 213.855469 216.632812 211.175781 218.425781 210.378906 C 219.316406 209.996094 220.191406 209.601562 221.0625 209.171875 C 221.4375 208.972656 221.871094 208.980469 222.261719 209.117188 C 223.476562 209.617188 223.554688 211.234375 222.382812 211.851562 Z M 222.382812 211.851562 " fill-opacity="1" fill-rule="nonzero"/></g></svg>